<mxfile host="app.diagrams.net" modified="2023-10-25T15:28:50.811Z" agent="Mozilla/5.0 (Windows NT 10.0; Win64; x64) AppleWebKit/537.36 (KHTML, like Gecko) Chrome/118.0.0.0 Safari/537.36" etag="2sl9Ae30cRlpT8Xf3JT1" version="22.0.8" type="device">
  <diagram name="Page-1" id="YkVL4qODUjQ8gRbMIn03">
    <mxGraphModel dx="1791" dy="953" grid="1" gridSize="10" guides="1" tooltips="1" connect="1" arrows="1" fold="1" page="1" pageScale="1" pageWidth="850" pageHeight="1100" math="0" shadow="0">
      <root>
        <mxCell id="0" />
        <mxCell id="1" parent="0" />
        <mxCell id="SzpcimQVXC5Mvg5-tODH-6" value="&lt;b&gt;ADL file&lt;/b&gt;" style="swimlane;fontStyle=0;childLayout=stackLayout;horizontal=1;startSize=26;fillColor=none;horizontalStack=0;resizeParent=1;resizeParentMax=0;resizeLast=0;collapsible=1;marginBottom=0;whiteSpace=wrap;html=1;" parent="1" vertex="1">
          <mxGeometry x="40" y="138" width="170" height="90" as="geometry" />
        </mxCell>
        <mxCell id="SzpcimQVXC5Mvg5-tODH-7" value="Component1 --&amp;gt; Component2&lt;br&gt;Component1 --&amp;gt; Component3&lt;br&gt;..." style="text;strokeColor=none;fillColor=none;align=left;verticalAlign=top;spacingLeft=4;spacingRight=4;overflow=hidden;rotatable=0;points=[[0,0.5],[1,0.5]];portConstraint=eastwest;whiteSpace=wrap;html=1;" parent="SzpcimQVXC5Mvg5-tODH-6" vertex="1">
          <mxGeometry y="26" width="170" height="64" as="geometry" />
        </mxCell>
        <mxCell id="SzpcimQVXC5Mvg5-tODH-37" value="" style="group" parent="1" vertex="1" connectable="0">
          <mxGeometry x="960" y="100" width="360" height="170" as="geometry" />
        </mxCell>
        <mxCell id="SzpcimQVXC5Mvg5-tODH-31" value="&lt;b&gt;Bitmap&lt;/b&gt;" style="shape=umlFrame;whiteSpace=wrap;html=1;pointerEvents=0;width=120;height=30;" parent="SzpcimQVXC5Mvg5-tODH-37" vertex="1">
          <mxGeometry width="360" height="170" as="geometry" />
        </mxCell>
        <mxCell id="SzpcimQVXC5Mvg5-tODH-32" value="Component1" style="html=1;whiteSpace=wrap;" parent="SzpcimQVXC5Mvg5-tODH-37" vertex="1">
          <mxGeometry x="123.42857142857142" y="22.173913043478255" width="102.85714285714285" height="36.95652173913043" as="geometry" />
        </mxCell>
        <mxCell id="SzpcimQVXC5Mvg5-tODH-33" value="Component2" style="html=1;whiteSpace=wrap;" parent="SzpcimQVXC5Mvg5-tODH-37" vertex="1">
          <mxGeometry x="30.00285714285714" y="95.62233825051757" width="113.14285714285714" height="36.95652173913043" as="geometry" />
        </mxCell>
        <mxCell id="SzpcimQVXC5Mvg5-tODH-35" style="rounded=0;orthogonalLoop=1;jettySize=auto;html=1;" parent="SzpcimQVXC5Mvg5-tODH-37" source="SzpcimQVXC5Mvg5-tODH-32" target="SzpcimQVXC5Mvg5-tODH-33" edge="1">
          <mxGeometry relative="1" as="geometry" />
        </mxCell>
        <mxCell id="SzpcimQVXC5Mvg5-tODH-34" value="Component3" style="html=1;whiteSpace=wrap;" parent="SzpcimQVXC5Mvg5-tODH-37" vertex="1">
          <mxGeometry x="226.28571428571428" y="95.62233825051757" width="113.14285714285714" height="36.95652173913043" as="geometry" />
        </mxCell>
        <mxCell id="SzpcimQVXC5Mvg5-tODH-36" style="rounded=0;orthogonalLoop=1;jettySize=auto;html=1;" parent="SzpcimQVXC5Mvg5-tODH-37" source="SzpcimQVXC5Mvg5-tODH-32" target="SzpcimQVXC5Mvg5-tODH-34" edge="1">
          <mxGeometry relative="1" as="geometry" />
        </mxCell>
        <mxCell id="SzpcimQVXC5Mvg5-tODH-17" value="&lt;b&gt;Diagram&lt;/b&gt;" style="swimlane;fontStyle=0;childLayout=stackLayout;horizontal=1;startSize=26;fillColor=none;horizontalStack=0;resizeParent=1;resizeParentMax=0;resizeLast=0;collapsible=1;marginBottom=0;whiteSpace=wrap;html=1;" parent="1" vertex="1">
          <mxGeometry x="340" y="138" width="480" height="86" as="geometry" />
        </mxCell>
        <mxCell id="SzpcimQVXC5Mvg5-tODH-21" value="vector&amp;lt;Component&amp;gt; componentList = [Component1, Component2, Component 3]" style="text;html=1;align=center;verticalAlign=middle;resizable=0;points=[];autosize=1;strokeColor=none;fillColor=none;" parent="SzpcimQVXC5Mvg5-tODH-17" vertex="1">
          <mxGeometry y="26" width="480" height="30" as="geometry" />
        </mxCell>
        <mxCell id="SzpcimQVXC5Mvg5-tODH-22" value="vector&amp;lt;Connector&amp;gt; connectorList = [Connector12, Connector13]" style="text;html=1;align=center;verticalAlign=middle;resizable=0;points=[];autosize=1;strokeColor=none;fillColor=none;" parent="SzpcimQVXC5Mvg5-tODH-17" vertex="1">
          <mxGeometry y="56" width="480" height="30" as="geometry" />
        </mxCell>
        <mxCell id="SzpcimQVXC5Mvg5-tODH-38" style="rounded=0;orthogonalLoop=1;jettySize=auto;html=1;shape=flexArrow;" parent="1" edge="1">
          <mxGeometry relative="1" as="geometry">
            <mxPoint x="230" y="190" as="sourcePoint" />
            <mxPoint x="320" y="190" as="targetPoint" />
          </mxGeometry>
        </mxCell>
        <mxCell id="SzpcimQVXC5Mvg5-tODH-41" value="" style="shape=flexArrow;endArrow=classic;html=1;rounded=0;width=13;endSize=6.5;" parent="1" edge="1">
          <mxGeometry width="50" height="50" relative="1" as="geometry">
            <mxPoint x="850" y="190" as="sourcePoint" />
            <mxPoint x="940" y="190" as="targetPoint" />
          </mxGeometry>
        </mxCell>
        <mxCell id="SzpcimQVXC5Mvg5-tODH-43" value="Import/Convert" style="text;html=1;strokeColor=none;fillColor=none;align=center;verticalAlign=middle;whiteSpace=wrap;rounded=0;fontStyle=1" parent="1" vertex="1">
          <mxGeometry x="240" y="150" width="60" height="30" as="geometry" />
        </mxCell>
        <mxCell id="SzpcimQVXC5Mvg5-tODH-45" value="&lt;b&gt;Render&lt;/b&gt;" style="text;html=1;strokeColor=none;fillColor=none;align=center;verticalAlign=middle;whiteSpace=wrap;rounded=0;" parent="1" vertex="1">
          <mxGeometry x="856" y="150" width="60" height="30" as="geometry" />
        </mxCell>
      </root>
    </mxGraphModel>
  </diagram>
</mxfile>
